<?xml version="1.0" standalone="no"?>
<!DOCTYPE svg PUBLIC "-//W3C//DTD SVG 20010904//EN"
 "http://www.w3.org/TR/2001/REC-SVG-20010904/DTD/svg10.dtd">
<svg version="1.0" xmlns="http://www.w3.org/2000/svg"
 width="100.000000pt" height="100.000000pt" viewBox="0 0 100.000000 100.000000"
 preserveAspectRatio="xMidYMid meet">
<metadata>
Created by potrace 1.15, written by Peter Selinger 2001-2017
</metadata>
<g transform="translate(0.000000,100.000000) scale(0.100000,-0.100000)"
fill="#000000" stroke="none">
<path d="M378 951 c-111 -29 -227 -120 -288 -227 -34 -59 -62 -169 -58 -226
l3 -39 47 78 c26 43 69 108 96 145 l48 67 47 -42 47 -42 -25 -99 c-15 -54 -25
-105 -23 -113 2 -8 44 40 93 107 50 67 97 131 106 143 16 21 16 21 62 -17 l46
-37 -15 -52 c-18 -59 -123 -328 -133 -339 -4 -4 -23 6 -43 22 l-37 30 43 93
c41 86 65 148 54 137 -3 -3 -51 -62 -106 -131 -55 -70 -104 -129 -109 -132 -4
-3 -23 7 -41 22 l-32 28 19 99 c10 54 22 113 26 129 6 29 5 28 -20 -10 -40
-62 -115 -213 -115 -232 0 -29 75 -135 122 -173 204 -168 465 -159 650 24 44
43 125 173 114 183 -2 2 -23 -6 -47 -16 -67 -30 -198 -63 -222 -57 -25 6 -147
102 -147 115 0 5 14 18 32 29 l32 20 49 -44 c50 -44 62 -49 92 -38 13 6 4 19
-46 70 -61 62 -62 63 -46 87 20 31 91 89 135 111 37 19 42 17 111 -41 l34 -29
-26 -58 -27 -57 -35 26 c-34 27 -34 27 -19 57 9 16 13 32 10 36 -7 6 -78 -49
-83 -65 -2 -6 21 -32 51 -57 l54 -47 59 24 58 23 3 49 c5 77 -24 185 -67 252
-123 190 -321 270 -533 214z"/>
</g>
</svg>
