<?xml version="1.0" standalone="no"?>
<!DOCTYPE svg PUBLIC "-//W3C//DTD SVG 20010904//EN"
 "http://www.w3.org/TR/2001/REC-SVG-20010904/DTD/svg10.dtd">
<svg version="1.0" xmlns="http://www.w3.org/2000/svg"
 width="500.000000pt" height="500.000000pt" viewBox="0 0 500.000000 500.000000"
 preserveAspectRatio="xMidYMid meet">
<metadata>
Created by potrace 1.15, written by Peter Selinger 2001-2017
</metadata>
<g transform="translate(0.000000,500.000000) scale(0.100000,-0.100000)"
fill="#000000" stroke="none">
<path d="M2343 3826 c-17 -8 -38 -25 -46 -38 -8 -13 -29 -93 -47 -178 -86
-421 -224 -876 -438 -1438 l-65 -174 -19 49 c-40 105 -124 376 -229 738 -140
486 -223 736 -252 763 -45 43 -99 52 -153 26 -65 -31 -74 -59 -94 -306 -37
-436 -60 -1069 -60 -1658 0 -290 2 -298 59 -337 63 -43 165 -20 197 45 7 15
13 216 18 609 5 324 11 641 15 707 l6 118 54 -183 c134 -460 235 -752 321
-934 44 -92 73 -115 144 -115 79 0 97 28 214 321 127 321 176 452 266 712 l72
207 17 -192 c24 -268 45 -629 57 -983 6 -168 15 -312 21 -327 26 -65 146 -92
204 -46 51 40 54 61 44 318 -21 579 -43 925 -80 1265 -17 153 -21 261 -22 560
-2 404 -5 423 -61 460 -35 24 -104 29 -143 11z"/>
<path d="M3635 3743 c-186 -16 -364 -63 -473 -124 -272 -152 -374 -388 -272
-632 67 -162 210 -322 490 -546 323 -260 440 -407 440 -550 0 -79 -70 -175
-180 -248 -25 -17 -106 -63 -180 -102 -74 -39 -148 -86 -164 -103 -25 -27 -28
-36 -24 -83 5 -56 27 -94 70 -119 56 -34 84 -23 363 137 202 117 312 233 357
380 16 55 19 87 16 165 -11 236 -151 430 -515 714 -243 188 -404 362 -433 466
-35 129 29 227 202 306 153 71 300 89 653 79 276 -8 325 -2 372 41 29 27 36
41 40 82 4 35 0 60 -11 82 -31 61 -41 62 -393 60 -175 -1 -336 -3 -358 -5z"/>
</g>
</svg>
